:version 1.10
:name ASF
:units
  mass 1
  length 1
  angle deg
:documentation
  ASF file generated by Kaydara
:root
  axis xyz
  order  tx ty tz rx ry rz
  position 0 0 0
  orientation 0 0 0
:bonedata
  begin
    id 1
    name RightUpLegDummy
    direction -1 2.30186e-007 8.31532e-007
    length 4.46685
    axis 0 0 0 xyz
  end
  begin
    id 2
    name RightUpLeg
    direction -2.30187e-007 -1 1.24343e-010
    length 16.4045
    axis -3.49089 -0.000906625 0.000286804 xyz
    dof rx ry rz
  end
  begin
    id 3
    name RightLeg
    direction -2.30181e-007 -1 -4.17157e-009
    length 17.5097
    axis 3.68512 0.0193738 -0.131023 xyz
    dof rx ry rz
  end
  begin
    id 4
    name RightFoot
    direction 8.31421e-007 -4.51202e-011 1
    length 6.49508
    axis 4.81691e-005 -0.120479 -0.188788 xyz
    dof rx ry rz
  end
  begin
    id 5
    name RightToes
    direction 0.00124746 -0.014064 0.9999
    length 3.85082
    axis 0.000481921 0.542163 -0.142578 xyz
    dof rx ry rz
  end
  begin
    id 6
    name SpineDummy
    direction 0.0717043 0.9409 -0.331007
    length 10.0032
    axis 0 0 0 xyz
  end
  begin
    id 7
    name Spine
    direction 2.30186e-007 1 4.58806e-011
    length 9.84055
    axis -0.001389 0.000121418 2.40972e-006 xyz
    dof rx ry rz
  end
  begin
    id 8
    name Spine1
    direction 0 0 0
    length 0
    axis -0.001389 0.000121451 1.30017e-006 xyz
    dof rx ry rz
  end
  begin
    id 9
    name HEadDummy
    direction -0.00347485 0.950688 -0.310128
    length 8.00997
    axis -0.001389 0.000121451 1.30017e-006 xyz
  end
  begin
    id 10
    name HEad
    direction -0.0222688 0.980941 0.193023
    length 5.12695
    axis -0.001389 0.000121451 1.30017e-006 xyz
    dof rx ry rz
  end
  begin
    id 11
    name LeftShoulder1Dummy
    direction 0.988871 0.146793 -0.0242004
    length 3.5792
    axis -0.001389 0.000121451 1.30017e-006 xyz
  end
  begin
    id 12
    name LeftShoulder1
    direction 0.993832 0.108932 0.020779
    length 4.16823
    axis -0.001389 0.000121451 1.30017e-006 xyz
    dof rx ry rz
  end
  begin
    id 13
    name LeftArm
    direction 1 3.44807e-006 -8.31404e-007
    length 9.91437
    axis -23.1894 0.134784 0.967509 xyz
    dof rx ry rz
  end
  begin
    id 14
    name LeftForeArm
    direction 1 3.44842e-006 -8.31581e-007
    length 9.08575
    axis -9.91835 -0.06569 -0.177793 xyz
    dof rx ry rz
  end
  begin
    id 15
    name LeftHand
    direction 0.992938 -0.0411636 0.11126
    length 5.32135
    axis -0.00960232 -0.00340091 0.185173 xyz
    dof rx ry rz
  end
  begin
    id 16
    name RightShoulderDummy
    direction -0.988871 0.146793 -0.0241962
    length 3.5792
    axis -0.001389 0.000121451 1.30017e-006 xyz
  end
  begin
    id 17
    name RightShoulder
    direction -0.993832 0.108933 0.0207785
    length 4.16823
    axis 0.215806 0.000203643 -0.0068026 xyz
    dof rx ry rz
  end
  begin
    id 18
    name RightArm
    direction -1 3.90912e-006 8.31284e-007
    length 9.91437
    axis -23.2009 -0.134239 -0.964101 xyz
    dof rx ry rz
  end
  begin
    id 19
    name RightForeArm
    direction -1 3.90882e-006 8.31502e-007
    length 9.08575
    axis -9.92322 0.0658061 0.178867 xyz
    dof rx ry rz
  end
  begin
    id 20
    name RightHand
    direction -0.992843 -0.0414603 0.112003
    length 5.28593
    axis -0.00960638 0.00330671 -0.185228 xyz
    dof rx ry rz
  end
  begin
    id 21
    name LeftUpLegDummy
    direction 1 -2.30186e-007 -8.31532e-007
    length 4.46685
    axis 0 0 0 xyz
  end
  begin
    id 22
    name LeftUpLeg
    direction -2.30187e-007 -1 6.00931e-010
    length 16.4045
    axis -3.48766 0.00143442 -0.000524262 xyz
    dof rx ry rz
  end
  begin
    id 23
    name LeftLeg
    direction -2.30187e-007 -1 1.6669e-009
    length 17.5097
    axis 3.68178 -0.00654042 -0.000285133 xyz
    dof rx ry rz
  end
  begin
    id 24
    name LeftFoot
    direction 8.31532e-007 -4.54478e-011 1
    length 6.49508
    axis 1.87233e-006 4.66016e-005 -8.6538e-006 xyz
    dof rx ry rz
  end
  begin
    id 25
    name LeftToes
    direction 0.00818058 -0.00485161 0.999955
    length 3.85048
    axis 1.06247e-005 4.65869e-005 -8.65513e-006 xyz
    dof rx ry rz
  end
:hierarchy
  begin
    root RightUpLegDummy SpineDummy LeftUpLegDummy
    RightUpLegDummy RightUpLeg
    RightUpLeg RightLeg
    RightLeg RightFoot
    RightFoot RightToes
    SpineDummy Spine
    Spine Spine1
    Spine1 HEadDummy LeftShoulder1Dummy RightShoulderDummy
    HEadDummy HEad
    LeftShoulder1Dummy LeftShoulder1
    LeftShoulder1 LeftArm
    LeftArm LeftForeArm
    LeftForeArm LeftHand
    RightShoulderDummy RightShoulder
    RightShoulder RightArm
    RightArm RightForeArm
    RightForeArm RightHand
    LeftUpLegDummy LeftUpLeg
    LeftUpLeg LeftLeg
    LeftLeg LeftFoot
    LeftFoot LeftToes
  end

:SAMPLES-PER-SECOND 30
:FULLY-SPECIFIED
:DEGREES
128
root  -64.8013 32.8409 9.60526 -166.143 69.021 -178.828
RightUpLeg  -27.9546 -19.3566 -4.34758
RightLeg  28.9256 -1.18273 -0.565203
RightFoot  2.69503 0.0124959 0.261574
RightToes  -44.4647 -0.255095 -0.340714
Spine  9.01911 1.23733 0.235345
Spine1  15.0794 4.262 -2.31853
HEad  16.2646 0.259148 9.92918
LeftShoulder1  0 -2.42657e-020 -4.95415e-022
LeftArm  -19.9062 -6.83679 -89.4251
LeftForeArm  43.4631 -27.0732 -5.14872
LeftHand  0.679147 -9.95923 -8.15831
RightShoulder  0 2.42657e-020 1.07489e-018
RightArm  -39.9338 25.126 59.7907
RightForeArm  52.5377 31.2528 6.10915
RightHand  -1.85692 25.9758 -7.67024
LeftUpLeg  -29.9283 7.25265 6.53904
LeftLeg  32.8432 -3.68966 -2.06065
LeftFoot  -1.64655 0.000968828 -0.234444
LeftToes  -25.6544 8.63562e-007 1.17448e-007
129
root  -65.0194 32.5822 9.38517 -165.534 69.1085 -178.212
RightUpLeg  -29.75 -19.0283 -4.68099
RightLeg  31.8556 -1.2341 -0.671576
RightFoot  2.04631 0.00497458 0.385216
RightToes  -45.0531 -0.260056 -0.341851
Spine  9.83851 2.1702 0.378598
Spine1  16.1152 6.69856 -2.81663
HEad  18.6287 -3.60254 11.8474
LeftShoulder1  0 -2.42657e-020 -4.95415e-022
LeftArm  -18.4291 -9.12505 -91.1477
LeftForeArm  41.9962 -26.4275 -5.00729
LeftHand  0.663147 -9.50925 -8.33616
RightShoulder  0 2.42657e-020 1.07489e-018
RightArm  -42.0877 28.5958 61.0804
RightForeArm  54.8885 23.7227 4.40392
RightHand  -0.2438 26.3112 -0.673202
LeftUpLeg  -32.0408 7.27907 6.30728
LeftLeg  36.47 -3.46824 -2.23634
LeftFoot  -3.28084 -0.00448616 -0.156656
LeftToes  -25.1004 8.63562e-007 1.17448e-007
130
root  -65.2728 32.3456 9.14367 -164.67 69.2739 -177.404
RightUpLeg  -31.1794 -18.6346 -4.97245
RightLeg  33.7541 -1.23725 -0.729269
RightFoot  1.79293 -0.000988025 0.48259
RightToes  -45.8514 -0.266832 -0.342643
Spine  10.5197 2.87216 0.483491
Spine1  17.0166 8.46784 -3.07982
HEad  21.1036 -7.39839 13.4975
LeftShoulder1  0 -2.42657e-020 -4.95415e-022
LeftArm  -17.5914 -11.0992 -92.9389
LeftForeArm  40.6835 -25.832 -4.87814
LeftHand  0.667614 -9.01866 -8.82663
RightShoulder  0 2.42657e-020 1.07489e-018
RightArm  -43.6613 32.09 62.37
RightForeArm  55.5374 15.8139 2.82366
RightHand  2.5769 24.024 12.4413
LeftUpLeg  -34.0122 7.44335 6.00709
LeftLeg  39.5951 -3.25311 -2.35867
LeftFoot  -4.54361 -0.0081417 -0.0997418
LeftToes  -24.9344 8.63562e-007 1.17448e-007
131
root  -65.5571 32.2049 8.92022 -163.176 69.8422 -175.998
RightUpLeg  -32.146 -17.5001 -5.09118
RightLeg  34.3654 -1.47733 -0.890139
RightFoot  2.38325 -0.00150973 0.493307
RightToes  -46.6276 -0.273472 -0.34313
Spine  10.9259 3.29804 0.331859
Spine1  17.6337 9.35809 -3.3519
HEad  23.2089 -10.6408 15.5815
LeftShoulder1  0 -2.42657e-020 -4.95415e-022
LeftArm  -17.1907 -12.4585 -94.0495
LeftForeArm  39.1124 -25.7577 -4.86379
LeftHand  0.64261 -8.43899 -9.07083
RightShoulder  0 2.42657e-020 1.07489e-018
RightArm  -40.4754 33.6176 65.6117
RightForeArm  57.8155 9.90244 1.72445
RightHand  3.71122 23.436 18.13
LeftUpLeg  -35.2666 8.06984 5.84831
LeftLeg  41.3385 -3.23668 -2.50035
LeftFoot  -5.50199 -0.0121663 -0.0363808
LeftToes  -24.4072 8.63562e-007 1.17448e-007
132
root  -65.8646 32.189 8.74346 -161.275 70.5747 -174.397
RightUpLeg  -32.482 -15.4908 -5.2577
RightLeg  33.3396 -2.32255 -1.3341
RightFoot  3.55645 0.0057727 0.38055
RightToes  -46.2934 -0.269869 -0.343828
Spine  11.0065 3.4621 -0.04889
Spine1  17.8103 9.48846 -3.69142
HEad  24.8193 -13.1395 17.7642
LeftShoulder1  0 -2.42657e-020 -4.95415e-022
LeftArm  -17.1612 -13.0019 -94.3998
LeftForeArm  36.9284 -26.2624 -4.97677
LeftHand  0.61601 -7.93389 -9.24333
RightShoulder  0 2.42657e-020 1.07489e-018
RightArm  -38.5688 31.8497 71.0034
RightForeArm  62.345 9.78415 1.69311
RightHand  3.72985 22.6522 18.8421
LeftUpLeg  -36.186 8.88367 5.64845
LeftLeg  41.9105 -3.17139 -2.50104
LeftFoot  -5.73613 -0.0133296 -0.0170118
LeftToes  -23.8704 8.63562e-007 1.17448e-007
133
root  -66.1558 32.2798 8.62697 -159.173 71.0164 -172.816
RightUpLeg  -32.2665 -14.0045 -5.24199
RightLeg  30.8265 -2.51256 -1.29686
RightFoot  5.34061 0.0151537 0.232738
RightToes  -45.7513 -0.265979 -0.345252
Spine  10.7645 3.32861 -0.4347
Spine1  17.5221 8.90104 -3.94436
HEad  25.6374 -14.6862 19.7993
LeftShoulder1  0 -2.42657e-020 -4.95415e-022
LeftArm  -17.4542 -12.8512 -94.1462
LeftForeArm  33.7237 -26.9949 -5.14201
LeftHand  0.551558 -7.16143 -9.17563
RightShoulder  0 2.42657e-020 1.07489e-018
RightArm  -34.2451 27.2706 76.1144
RightForeArm  61.5836 13.1873 2.31757
RightHand  3.25211 22.3709 16.7136
LeftUpLeg  -36.7924 9.13806 5.59435
LeftLeg  41.3357 -2.96589 -2.29183
LeftFoot  -5.16504 -0.00994629 -0.0680636
LeftToes  -24.3218 8.63562e-007 1.17448e-007
134
root  -66.4151 32.4202 8.57989 -157.223 71.0474 -171.478
RightUpLeg  -31.3582 -13.0351 -5.30562
RightLeg  27.2359 -1.33183 -0.586568
RightFoot  7.35612 0.0140326 0.245354
RightToes  -46.3943 -0.271471 -0.348321
Spine  10.2487 2.89278 -0.720745
Spine1  16.873 7.66769 -4.05367
HEad  25.9454 -15.3086 20.9506
LeftShoulder1  0 -2.42657e-020 -4.95415e-022
LeftArm  -17.8718 -11.9164 -93.3133
LeftForeArm  30.2288 -28.2508 -5.42801
LeftHand  0.481607 -6.03536 -9.49727
RightShoulder  0 2.42657e-020 1.07489e-018
RightArm  -30.817 22.1264 80.1712
RightForeArm  57.4874 15.6496 2.78843
RightHand  2.58169 23.1105 12.9519
LeftUpLeg  -37.2214 9.20536 5.65721
LeftLeg  40.1257 -2.99395 -2.21412
LeftFoot  -4.38051 -0.00757513 -0.103389
LeftToes  -24.2797 8.63562e-007 1.17448e-007
135
root  -66.6245 32.5677 8.5897 -155.819 71.1216 -170.498
RightUpLeg  -29.8043 -10.4809 -6.14812
RightLeg  24.111 1.57211 0.581667
RightFoot  8.03694 -0.00877951 0.591931
RightToes  -49.0297 -0.29433 -0.360247
Spine  9.65941 2.41606 -0.973714
Spine1  16.1381 6.35628 -4.0602
HEad  26.5028 -15.6629 21.5499
LeftShoulder1  0 -2.42657e-020 -4.95415e-022
LeftArm  -17.797 -10.5875 -92.0518
LeftForeArm  26.5164 -29.8377 -5.79807
LeftHand  0.434814 -5.16645 -9.99836
RightShoulder  0 2.42657e-020 1.07489e-018
RightArm  -28.1981 16.9342 82.8601
RightForeArm  50.3601 17.0008 3.0606
RightHand  2.21141 23.364 11.0388
LeftUpLeg  -37.2687 9.26033 5.75103
LeftLeg  38.698 -2.97435 -2.08716
LeftFoot  -3.51893 -0.00457054 -0.148799
LeftToes  -24.0557 8.63562e-007 1.17448e-007
136
root  -66.7812 32.6995 8.67128 -154.884 71.188 -169.489
RightUpLeg  -28.3149 -8.69323 -6.57078
RightLeg  23.5878 3.36108 1.21286
RightFoot  5.37384 -0.0117149 0.627093
RightToes  -49.9402 -0.30235 -0.364122
Spine  9.21262 1.96537 -1.14815
Spine1  15.6188 5.19572 -4.01397
HEad  27.0181 -15.9077 21.8051
LeftShoulder1  0 -2.42657e-020 -4.95415e-022
LeftArm  -17.5951 -9.25531 -90.6326
LeftForeArm  22.2809 -31.6835 -6.24285
LeftHand  0.370523 -4.12266 -10.6547
RightShoulder  0 2.42657e-020 1.07489e-018
RightArm  -28.5254 12.2541 84.82
RightForeArm  46.3537 17.3737 3.1392
RightHand  2.23987 23.6991 11.019
LeftUpLeg  -36.8413 9.4011 6.04425
LeftLeg  37.3993 -3.01227 -2.01338
LeftFoot  -2.66714 -0.00171811 -0.195025
LeftToes  -23.9781 8.63562e-007 1.17448e-007
137
root  -66.9243 32.8206 8.80799 -154.568 71.3124 -168.917
RightUpLeg  -26.7911 -8.72714 -6.62686
RightLeg  24.2354 2.66225 0.993901
RightFoot  4.55828 -0.00368888 0.470163
RightToes  -50.0465 -0.303291 -0.364566
Spine  8.85757 1.4866 -1.28537
Spine1  15.2603 3.97584 -3.81809
HEad  26.9451 -16.0446 21.7324
LeftShoulder1  0 -2.42657e-020 -4.95415e-022
LeftArm  -19.0799 -7.90395 -89.7115
LeftForeArm  18.6939 -33.7711 -6.76722
LeftHand  0.379562 -3.84232 -11.67
RightShoulder  0 2.42657e-020 1.07489e-018
RightArm  -30.6031 8.36991 86.0457
RightForeArm  46.4473 17.3144 3.12757
RightHand  2.41625 23.833 11.7864
LeftUpLeg  -36.1187 9.30098 6.3692
LeftLeg  35.9381 -2.83916 -1.79512
LeftFoot  -1.66544 0.00208473 -0.26028
LeftToes  -24.2542 8.63562e-007 1.17448e-007
138
root  -67.0399 32.9216 9.00782 -154.731 71.4484 -168.772
RightUpLeg  -25.0047 -9.53106 -6.73048
RightLeg  25.1573 0.0912005 0.0313481
RightFoot  3.84677 0.00563187 0.209806
RightToes  -48.1813 -0.286912 -0.356523
Spine  8.50606 0.977659 -1.43451
Spine1  14.8891 2.72457 -3.65933
HEad  26.6867 -15.6331 21.586
LeftShoulder1  0 -2.42657e-020 -4.95415e-022
LeftArm  -20.9181 -6.66093 -88.886
LeftForeArm  16.1013 -36.0786 -7.37802
LeftHand  0.216566 -2.37623 -10.8149
RightShoulder  0 2.42657e-020 1.07489e-018
RightArm  -33.293 4.86176 86.8447
RightForeArm  48.8287 16.9731 3.05789
RightHand  2.1446 24.5326 10.2134
LeftUpLeg  -35.2825 9.29917 6.67135
LeftLeg  34.4226 -2.80742 -1.67287
LeftFoot  -0.612531 0.0054175 -0.319935
LeftToes  -24.7019 8.63562e-007 1.17448e-007
139
root  -67.1388 32.9947 9.25476 -156.012 71.5476 -169.688
RightUpLeg  -23.0508 -11.2971 -7.21639
RightLeg  26.2419 -2.45484 -1.02445
RightFoot  3.4519 0.0107619 0.0203934
RightToes  -46.6124 -0.273342 -0.349348
Spine  8.11054 0.488034 -1.64032
Spine1  14.4399 1.62419 -3.77805
HEad  26.1609 -14.5386 21.5483
LeftShoulder1  0 -2.42657e-020 -4.95415e-022
LeftArm  -22.2458 -5.04129 -87.6792
LeftForeArm  14.0488 -39.6657 -8.40592
LeftHand  0.055722 -0.549142 -12.1102
RightShoulder  0 2.42657e-020 1.07489e-018
RightArm  -36.3246 1.37652 87.4155
RightForeArm  51.8078 16.7202 3.00403
RightHand  1.58056 24.9632 7.50339
LeftUpLeg  -34.3502 9.13973 6.76183
LeftLeg  32.8693 -2.76184 -1.54592
LeftFoot  0.574912 0.00796271 -0.366501
LeftToes  -25.3958 8.63562e-007 1.17448e-007
